<svg width="41" height="42" viewBox="0 0 41 42" fill="none" xmlns="http://www.w3.org/2000/svg">
<path d="M28.2432 18.9875C25.7031 18.9875 25.3516 21.575 25.3516 21.575H30.7481C30.7481 21.575 30.7832 18.9875 28.2432 18.9875Z" fill="#F9EEE7"/>
<path d="M16 21.575H11.2188V26.0672H15.7627C16.4482 26.0492 17.7314 25.8515 17.7314 23.884C17.7314 21.548 16 21.575 16 21.575Z" fill="#F9EEE7"/>
<path d="M20.5 0.875C9.62793 0.875 0.8125 9.88633 0.8125 21C0.8125 32.1137 9.62793 41.125 20.5 41.125C31.3721 41.125 40.1875 32.1137 40.1875 21C40.1875 9.88633 31.3721 0.875 20.5 0.875ZM24.6484 13.2375H31.4248V15.3039H24.6484V13.2375ZM21.2207 24.0906C21.2207 29.2117 16 29.05 16 29.05H7.45703V12.2492H16C18.6016 12.2492 20.6494 13.7137 20.6494 16.7234C20.6494 19.7332 18.1445 19.9219 18.1445 19.9219C21.4492 19.9219 21.2207 24.0906 21.2207 24.0906ZM33.8945 23.8121H25.3779C25.3779 26.9297 28.2695 26.732 28.2695 26.732C31.0029 26.732 30.9062 24.9262 30.9062 24.9262H33.7979C33.7979 29.7238 28.1728 29.3914 28.1728 29.3914C21.4316 29.3914 21.8623 22.9676 21.8623 22.9676C21.8623 22.9676 21.8535 16.5168 28.1728 16.5168C34.8262 16.5258 33.8945 23.8121 33.8945 23.8121Z" fill="#F9EEE7"/>
<path d="M17.1602 16.9839C17.1602 15.241 16 15.241 16 15.241H11.2188V18.9875H15.7012C16.4746 18.9875 17.1602 18.7269 17.1602 16.9839Z" fill="#F9EEE7"/>
</svg>
