<svg width="42" height="42" viewBox="0 0 42 42" fill="none" xmlns="http://www.w3.org/2000/svg">
<path d="M0 21C0 17.192 0.938028 13.678 2.814 10.458C4.69001 7.23799 7.23803 4.69001 10.458 2.814C13.678 0.937986 17.192 0 21 0C24.808 0 28.322 0.937986 31.542 2.814C34.762 4.69001 37.31 7.23799 39.186 10.458C41.062 13.678 42 17.192 42 21C42 24.808 41.062 28.322 39.186 31.542C37.31 34.762 34.762 37.31 31.542 39.186C28.322 41.062 24.808 42 21 42C17.192 42 13.678 41.062 10.458 39.186C7.23803 37.31 4.69001 34.762 2.814 31.542C0.938028 28.322 0 24.808 0 21ZM3.486 21C3.486 25.368 4.956 29.218 7.896 32.55C9.24 29.918 11.368 27.412 14.28 25.032C17.192 22.652 20.034 21.154 22.806 20.538C22.386 19.558 21.98 18.676 21.588 17.892C16.772 19.432 11.564 20.202 5.964 20.202C4.872 20.202 4.06001 20.188 3.528 20.16C3.528 20.272 3.52103 20.412 3.507 20.58C3.49301 20.748 3.486 20.888 3.486 21ZM4.032 16.674C4.64801 16.73 5.55803 16.758 6.762 16.758C11.438 16.758 15.876 16.128 20.076 14.868C17.948 11.088 15.61 7.938 13.062 5.418C10.85 6.53801 8.95301 8.09201 7.371 10.08C5.78903 12.068 4.67603 14.266 4.032 16.674ZM10.29 34.818C13.454 37.282 17.024 38.514 21 38.514C23.072 38.514 25.13 38.122 27.174 37.338C26.614 32.55 25.522 27.916 23.898 23.436C21.322 23.996 18.725 25.41 16.107 27.678C13.489 29.946 11.55 32.326 10.29 34.818ZM16.716 4.074C19.18 6.62201 21.462 9.79999 23.562 13.608C27.37 12.012 30.24 9.98201 32.172 7.518C28.924 4.83 25.2 3.486 21 3.486C19.572 3.486 18.144 3.68201 16.716 4.074ZM25.074 16.59C25.494 17.486 25.97 18.62 26.502 19.992C28.574 19.796 30.828 19.698 33.264 19.698C35 19.698 36.722 19.74 38.43 19.824C38.206 16.016 36.834 12.628 34.314 9.66C32.494 12.376 29.414 14.686 25.074 16.59ZM27.552 22.932C28.98 27.076 29.946 31.332 30.45 35.7C32.662 34.272 34.468 32.438 35.868 30.198C37.268 27.958 38.108 25.536 38.388 22.932C36.344 22.792 34.482 22.722 32.802 22.722C31.262 22.722 29.512 22.792 27.552 22.932Z" fill="#F9EEE7"/>
</svg>
