<svg width="28" height="28" viewBox="0 0 28 28" fill="none" xmlns="http://www.w3.org/2000/svg">
<path d="M27.3069 11.8425L27.1656 11.2431H14.1381V16.7569H21.9219C21.1137 20.5944 17.3637 22.6144 14.3006 22.6144C12.0719 22.6144 9.7225 21.6769 8.1675 20.17C7.34708 19.3623 6.69403 18.4006 6.24574 17.3402C5.79746 16.2797 5.56273 15.1413 5.555 13.99C5.555 11.6675 6.59875 9.34437 8.1175 7.81625C9.63625 6.28812 11.93 5.43313 14.2106 5.43313C16.8225 5.43313 18.6944 6.82 19.3944 7.4525L23.3125 3.555C22.1631 2.545 19.0056 0 14.0844 0C10.2875 0 6.64687 1.45438 3.98562 4.10687C1.35937 6.71875 0 10.4956 0 14C0 17.5044 1.28625 21.0925 3.83125 23.725C6.55063 26.5325 10.4019 28 14.3675 28C17.9756 28 21.3956 26.5862 23.8331 24.0212C26.2294 21.4962 27.4688 18.0025 27.4688 14.34C27.4688 12.7981 27.3138 11.8825 27.3069 11.8425Z" fill="white"/>
</svg>
