<svg width="60" height="60" viewBox="0 0 60 60" fill="none" xmlns="http://www.w3.org/2000/svg">
<path d="M13.31 19.8957L13.911 19.2651V38.9584L13.31 39.6385M13.31 19.8957L12.709 20.5263V40.2532L13.31 39.6385M13.31 19.8957V39.6385M33.4446 21.2879L34.0457 20.7563V28.6661L33.4446 29.2672M33.4446 21.2879L32.8436 21.8396V29.8682L33.4446 29.2672M33.4446 21.2879V29.2672M46.9197 21.5139L47.5207 20.9128V21.8144L46.9197 22.4154M46.9197 21.5139L46.3187 22.1149V23.0165L46.9197 22.4154M46.9197 21.5139V22.4154M33.3536 38.5833L33.9546 37.9823V38.8838L33.3536 39.4848M33.3536 38.5833L32.7525 39.1843V40.0859L33.3536 39.4848M33.3536 38.5833V39.4848M46.6675 30.866L47.2685 30.258V39.0807L46.6675 39.7068M46.6675 30.866L46.0664 31.4746V40.2661L46.6675 39.7068M46.6675 30.866V39.7068M14.1982 40.3863L13.6105 40.9874H25.9317L26.5328 40.3863M14.1982 40.3863L14.7322 39.7853H27.1338L26.5328 40.3863M14.1982 40.3863H26.5328M34.0323 40.3863L33.4447 40.9874H45.4227L46.0155 40.3863M34.0323 40.3863L34.6351 39.7853L46.5831 39.7853L46.0155 40.3863M34.0323 40.3863H46.0155M34.1223 30.1688L33.5434 30.7698H45.1649L45.7659 30.1688M34.1223 30.1688L34.7012 29.5678H46.3669L45.7659 30.1688M34.1223 30.1688H45.7659M34.0927 20.5522L33.5209 21.1532H45.6457L46.2467 20.5522M34.0927 20.5522L34.6644 19.9511H46.8478L46.2467 20.5522M34.0927 20.5522H46.2467M33.1554 1L42.772 10.6166L10.6166 42.772L1 33.1554L33.1554 1ZM48.1814 16.0259L59 26.8446L26.8446 59L16.0259 48.1814L48.1814 16.0259Z" stroke="black"/>
</svg>
