<svg width="163" height="163" viewBox="0 0 163 163" fill="none" xmlns="http://www.w3.org/2000/svg">
<path d="M35.1708 53.4518L36.8392 51.7014V106.367L35.1708 108.255M35.1708 53.4518L33.5024 55.2022V109.962L35.1708 108.255M35.1708 53.4518V108.255M91.0619 57.3165L92.7303 55.8409V77.7973L91.0619 79.4657M91.0619 57.3165L89.3935 58.8478V81.1341L91.0619 79.4657M91.0619 57.3165V79.4657M128.467 57.9437L130.135 56.2753V58.7779L128.467 60.4463M128.467 57.9437L126.798 59.6121V62.1147L128.467 60.4463M128.467 57.9437V60.4463M90.8091 105.326L92.4775 103.658V106.16L90.8091 107.829M90.8091 105.326L89.1407 106.994V109.497L90.8091 107.829M90.8091 105.326V107.829M127.767 83.9038L129.435 82.2162V106.707L127.767 108.445M127.767 83.9038L126.098 85.5933V109.997L127.767 108.445M127.767 83.9038V108.445M37.6363 110.331L36.005 111.999H70.2071L71.8755 110.331M37.6363 110.331L39.1187 108.663H73.5438L71.8755 110.331M37.6363 110.331H71.8755M92.6932 110.331L91.0619 111.999H124.311L125.957 110.331M92.6932 110.331L94.3665 108.663L127.533 108.663L125.957 110.331M92.6932 110.331H125.957M92.943 81.9686L91.3361 83.637H123.596L125.264 81.9686M92.943 81.9686L94.55 80.3002H126.932L125.264 81.9686M92.943 81.9686H125.264M92.8607 55.2742L91.2737 56.9425H124.93L126.599 55.2742M92.8607 55.2742L94.4477 53.6058H128.267L126.599 55.2742M92.8607 55.2742H126.599M90.2591 1L116.953 27.6943L27.6943 116.953L1 90.2591L90.2591 1ZM131.969 42.7099L162 72.7409L72.7409 162L42.7099 131.969L131.969 42.7099Z" stroke="#282828"/>
</svg>
