<svg width="32" height="32" viewBox="0 0 32 32" fill="none" xmlns="http://www.w3.org/2000/svg">
<path d="M16.001 0C7.17867 0 0.000976562 7.17769 0.000976562 16C0.000976562 24.8223 7.17867 32 16.001 32C24.8233 32 32.001 24.8223 32.001 16C32.001 7.17769 24.8233 0 16.001 0ZM9.23175 23.2308C8.86661 23.2308 8.50968 23.1225 8.20608 22.9196C7.90248 22.7168 7.66585 22.4284 7.52612 22.0911C7.38639 21.7538 7.34983 21.3826 7.42107 21.0245C7.4923 20.6663 7.66813 20.3374 7.92632 20.0792C8.18451 19.821 8.51346 19.6452 8.87158 19.5739C9.2297 19.5027 9.6009 19.5393 9.93824 19.679C10.2756 19.8187 10.5639 20.0553 10.7668 20.3589C10.9696 20.6625 11.0779 21.0195 11.0779 21.3846C11.0779 21.8742 10.8834 22.3438 10.5372 22.69C10.191 23.0363 9.72138 23.2308 9.23175 23.2308ZM9.23175 17.7692C8.86661 17.7692 8.50968 17.661 8.20608 17.4581C7.90248 17.2552 7.66585 16.9669 7.52612 16.6296C7.38639 16.2922 7.34983 15.921 7.42107 15.5629C7.4923 15.2048 7.66813 14.8758 7.92632 14.6176C8.18451 14.3595 8.51346 14.1836 8.87158 14.1124C9.2297 14.0412 9.6009 14.0777 9.93824 14.2175C10.2756 14.3572 10.5639 14.5938 10.7668 14.8974C10.9696 15.201 11.0779 15.5579 11.0779 15.9231C11.0779 16.4127 10.8834 16.8823 10.5372 17.2285C10.191 17.5747 9.72138 17.7692 9.23175 17.7692ZM9.23175 12.1538C8.86661 12.1538 8.50968 12.0456 8.20608 11.8427C7.90248 11.6399 7.66585 11.3515 7.52612 11.0142C7.38639 10.6768 7.34983 10.3056 7.42107 9.94753C7.4923 9.58941 7.66813 9.26045 7.92632 9.00226C8.18451 8.74407 8.51346 8.56825 8.87158 8.49701C9.2297 8.42578 9.6009 8.46234 9.93824 8.60207C10.2756 8.7418 10.5639 8.97843 10.7668 9.28203C10.9696 9.58562 11.0779 9.94256 11.0779 10.3077C11.0779 10.7973 10.8834 11.2669 10.5372 11.6131C10.191 11.9593 9.72138 12.1538 9.23175 12.1538ZM23.3856 22.5385H13.5394C13.213 22.5385 12.9 22.4088 12.6692 22.178C12.4383 21.9472 12.3087 21.6341 12.3087 21.3077C12.3087 20.9813 12.4383 20.6682 12.6692 20.4374C12.9 20.2066 13.213 20.0769 13.5394 20.0769H23.3856C23.712 20.0769 24.0251 20.2066 24.2559 20.4374C24.4867 20.6682 24.6164 20.9813 24.6164 21.3077C24.6164 21.6341 24.4867 21.9472 24.2559 22.178C24.0251 22.4088 23.712 22.5385 23.3856 22.5385ZM23.3856 17.0769H13.5394C13.213 17.0769 12.9 16.9473 12.6692 16.7164C12.4383 16.4856 12.3087 16.1726 12.3087 15.8462C12.3087 15.5197 12.4383 15.2067 12.6692 14.9759C12.9 14.7451 13.213 14.6154 13.5394 14.6154H23.3856C23.712 14.6154 24.0251 14.7451 24.2559 14.9759C24.4867 15.2067 24.6164 15.5197 24.6164 15.8462C24.6164 16.1726 24.4867 16.4856 24.2559 16.7164C24.0251 16.9473 23.712 17.0769 23.3856 17.0769ZM23.3856 11.5385H13.5394C13.213 11.5385 12.9 11.4088 12.6692 11.178C12.4383 10.9472 12.3087 10.6341 12.3087 10.3077C12.3087 9.98127 12.4383 9.66822 12.6692 9.43741C12.9 9.20659 13.213 9.07692 13.5394 9.07692H23.3856C23.712 9.07692 24.0251 9.20659 24.2559 9.43741C24.4867 9.66822 24.6164 9.98127 24.6164 10.3077C24.6164 10.6341 24.4867 10.9472 24.2559 11.178C24.0251 11.4088 23.712 11.5385 23.3856 11.5385Z" fill="#313131"/>
</svg>
